<?xml version="1.0" encoding="utf-8"?><svg fill="none" viewBox="0 0 800 800" xmlns="http://www.w3.org/2000/svg"><defs /><g id="#dot01"><g transform="translate(301.814,439.774)"><animateTransform repeatCount="indefinite" type="translate" attributeName="transform" dur="1.183s" begin="0s" calcMode="spline" values="301.814 439.774; 301.814 379.774; 301.814 479.774; 301.814 429.774; 301.814 445.774; 301.814 439.774" keyTimes="0; 0.211; 0.493; 0.69; 0.859; 1" keySplines="0.583 0 0.4 1; 0.7 0 0.599 1; 0.333 0 0.58 1; 0.333 0 0.58 1; 0.333 0 0.5 1" fill="freeze" /><g transform="scale(1,1) translate(0,0)"><g id="Group 1"><path fill="#713ffa" fill-opacity="1" d="M30,0C30,16.569,16.569,30,0,30C-16.569,30,-30,16.569,-30,0C-30,-16.569,-16.569,-30,0,-30C16.569,-30,30,-16.569,30,0Z" /></g></g></g></g><g id="#dot02"><g transform="translate(401.814,439.774)"><animateTransform repeatCount="indefinite" type="translate" attributeName="transform" dur="1.183s" begin="0.067s" calcMode="spline" values="401.814 439.774; 401.814 379.774; 401.814 479.774; 401.814 429.774; 401.814 445.774; 401.814 439.774" keyTimes="0; 0.225; 0.493; 0.69; 0.859; 1" keySplines="0.583 0 0.513 1; 0.474 0 0.575 1; 0.333 0 0.58 1; 0.333 0 0.58 1; 0.333 0 0.5 1" fill="freeze" /><g transform="scale(1,1) translate(0,0)"><g id="Group 1"><path fill="#713ffa" fill-opacity="1" d="M30,0C30,16.569,16.569,30,0,30C-16.569,30,-30,16.569,-30,0C-30,-16.569,-16.569,-30,0,-30C16.569,-30,30,-16.569,30,0Z" /></g></g></g></g><g id="#dot03"><g transform="translate(501.814,439.774)"><animateTransform repeatCount="indefinite" type="translate" attributeName="transform" dur="1.183s" begin="0.133s" calcMode="spline" values="501.814 439.774; 501.814 379.774; 501.814 479.774; 501.814 429.774; 501.814 445.774; 501.814 439.774" keyTimes="0; 0.239; 0.507; 0.69; 0.859; 1" keySplines="0.583 0 0.6 1; 0.4 0 0.599 1; 0.333 0 0.58 1; 0.333 0 0.58 1; 0.333 0 0.5 1" fill="freeze" /><g transform="scale(1,1) translate(0,0)"><g id="Group 1"><path fill="#713ffa" fill-opacity="1" d="M30,0C30,16.569,16.569,30,0,30C-16.569,30,-30,16.569,-30,0C-30,-16.569,-16.569,-30,0,-30C16.569,-30,30,-16.569,30,0Z" /></g></g></g></g></svg>